<svg xmlns="http://www.w3.org/2000/svg" width="38.781" height="38.781" viewBox="0 0 38.781 38.781"><defs><style>.a{fill:rgba(0,192,42,0.8);}</style></defs><path class="a" d="M6.464,4A2.478,2.478,0,0,0,4,6.464V40.318a2.478,2.478,0,0,0,2.464,2.464H40.318a2.476,2.476,0,0,0,2.464-2.464V6.464A2.476,2.476,0,0,0,40.318,4Zm0,1.847H40.318a.614.614,0,0,1,.617.617V40.318a.614.614,0,0,1-.617.617H6.464a.614.614,0,0,1-.617-.617V6.464A.614.614,0,0,1,6.464,5.847Zm15.08,15.7V33.155c0,1.782-.675,2.24-1.847,2.24a3.033,3.033,0,0,1-2.64-1.757l-2.9,1.757a6.483,6.483,0,0,0,5.757,3.693c3.16,0,5.324-1.681,5.324-5.371V21.544Zm11.5,0c-3.145,0-5.161,2.013-5.161,4.657,0,2.867,1.692,4.224,4.234,5.306l.88.379c1.605.7,2.4,1.133,2.4,2.341,0,1.006-.765,1.735-2.225,1.735-1.739,0-2.561-1.18-3.315-2.413l-2.77,1.847a6.432,6.432,0,0,0,6.164,3.693c3.347,0,5.84-1.739,5.84-4.909,0-2.943-1.688-4.253-4.685-5.537l-.88-.375c-1.511-.657-2.168-1.082-2.168-2.139a1.536,1.536,0,0,1,1.688-1.511,2.393,2.393,0,0,1,2.265,1.511l2.745-1.76A5.2,5.2,0,0,0,33.043,21.544Z" transform="translate(-4 -4)"/></svg>