<svg xmlns="http://www.w3.org/2000/svg" width="37.924" height="42.475" viewBox="0 0 37.924 42.475"><defs><style>.a{fill:rgba(0,192,42,0.8);}</style></defs><path class="a" d="M42.146,2.3a.92.92,0,0,0-.682-.3H5.388a.92.92,0,0,0-.682.3.91.91,0,0,0-.238.707l3.25,36.4a.926.926,0,0,0,.667.808l14.785,4.22a.836.836,0,0,0,.252.036.853.853,0,0,0,.252-.036l14.8-4.22a.931.931,0,0,0,.667-.808l3.246-36.4A.91.91,0,0,0,42.146,2.3Zm-7.78,12.552H17l.415,4.7H33.948l-1.241,13.89-9.288,2.806-.09-.029-9.18-2.781-.5-5.659h4.5l.195,2.2,5.133,1.075,5.039-1.075.537-5.944H13.313L12.09,10.361H34.766Z" transform="translate(-4.464 -2)"/></svg>