<svg xmlns="http://www.w3.org/2000/svg" width="42.475" height="42.475" viewBox="0 0 42.475 42.475"><defs><style>.a{fill:rgba(0,192,42,0.8);}</style></defs><path class="a" d="M43.36,20.55,25.925,3.115a3.8,3.8,0,0,0-5.374,0L17.1,6.563l4.267,4.267a3.677,3.677,0,0,1,5.039,5.039L30.6,20.063A3.693,3.693,0,1,1,29.3,21.369L25.1,17.174a3.561,3.561,0,0,1-.941.39V28.907a3.693,3.693,0,1,1-1.847,0V17.564a3.65,3.65,0,0,1-2.247-5.425L15.8,7.868,3.115,20.55a3.8,3.8,0,0,0,0,5.374L20.55,43.36a3.8,3.8,0,0,0,5.374,0L43.36,25.925A3.8,3.8,0,0,0,43.36,20.55Z" transform="translate(-2 -2)"/></svg>