<svg xmlns="http://www.w3.org/2000/svg" width="40" height="40" viewBox="0 0 40 40"><defs><style>.a{fill:rgba(0,192,42,0.8);}</style></defs><path class="a" d="M18.869,46.245C18.85,46.295,18.831,46.335,18.869,46.245ZM34.439,39a6.573,6.573,0,0,0-3.625,1.125A12.311,12.311,0,0,1,30,37.612a8.889,8.889,0,0,1-.069-2.108,22.5,22.5,0,0,1,.475-2.266c-.006-.092-.088-.55-.894-.558s-1.5.208-1.581.492a13,13,0,0,0-.331,1.592,44.541,44.541,0,0,1-2.443,6.274A7.846,7.846,0,0,1,24.6,39.2a8.889,8.889,0,0,1-.069-2.108,22.5,22.5,0,0,1,.475-2.266c-.006-.092-.088-.55-.893-.558s-1.5.208-1.581.492-.169.95-.331,1.592S20.085,42.8,19.574,44.3c-.263.767-.488,1.383-.65,1.8-.025.067-.044.108-.056.142.019-.042.031-.083.031-.067-.138.358-.219.558-.219.558v.008c-.106.267-.225.508-.281.508a4.576,4.576,0,0,1,.019-1.658c.294-2.017.988-5.15.981-5.258a.808.808,0,0,0-.456-.892.621.621,0,0,0-.825.183c-.05,0-.088.167-.088.167s.631-3.533-1.212-3.533c-1.15,0-2.75,1.683-3.536,3.208-.494.358-1.563,1.133-2.688,1.958l-1.294.95c-.031-.042-.056-.083-.088-.125-2.237-3.183-6.367-5.433-6.192-9.708.063-1.558.469-5.65,7.942-10.616,6.125-4.066,11.022-2.95,11.865-.467C24.041,25,20.21,31.6,13.849,32.546a4.057,4.057,0,0,1-4.018-1.358c-.331-.492-.381-.517-.506-.425-.206.15-.075.583,0,.842a4.265,4.265,0,0,0,2.3,2.408c1.169.508,4.011.792,7.448-.983,3.861-1.983,6.867-7.508,5.986-12.132-.9-4.7-6.743-6.241-12.27-3.625a27.2,27.2,0,0,0-9.416,7.2c-3.043,3.8-3.53,7.108-3.33,8.491C.755,37.87,5.828,41.07,7.859,43.437c-.1.075-.194.142-.281.208-1.018.675-4.886,3.375-5.854,6.224C.63,53.1,1.9,55.419,2.742,55.736c2.612.967,5.286-.775,6.723-3.633a11.686,11.686,0,0,0,.6-8.291c-.006-.025-.019-.042-.025-.067.263-.208.531-.417.8-.625.518-.408,1.024-.783,1.468-1.108a16.772,16.772,0,0,0-.525,3.55A9.114,9.114,0,0,0,12.977,50.7a1.107,1.107,0,0,0,.962.417c.863,0,1.25-.95,1.681-2.083.531-1.383,1-2.991,1-2.991s-.588,4.35,1.019,4.35c.587,0,1.174-1.008,1.438-1.525v.008s.013-.033.044-.1c.063-.125.094-.2.094-.2v-.025c.238-.542.756-1.783,1.537-3.833,1.013-2.65,1.981-5.958,1.981-5.958a21.55,21.55,0,0,0,.388,2.15,23.959,23.959,0,0,0,.838,2.5c-.238.433-.381.683-.381.683a.03.03,0,0,0,.006.017c-.188.333-.4.692-.619,1.042a29.752,29.752,0,0,0-1.875,3.133,1.039,1.039,0,0,0,.175,1.142,1.2,1.2,0,0,0,.981.208,3.481,3.481,0,0,0,1.469-.45,4.87,4.87,0,0,0,1.262-.883,4.285,4.285,0,0,0,1.213-3.316,8.8,8.8,0,0,0-.456-2.35c.069-.133.144-.275.213-.417a49.845,49.845,0,0,0,2.193-5.051,21.55,21.55,0,0,0,.388,2.15,17.521,17.521,0,0,0,.712,2.141A9.394,9.394,0,0,0,27.1,45.135c-.463,1.775-.1,2.575.581,2.758a1.663,1.663,0,0,0,1.069-.292,4.676,4.676,0,0,0,1.349-.925,4.372,4.372,0,0,0,1.487-3.3,7.971,7.971,0,0,0-.338-1.95,5.9,5.9,0,0,1,3.881-.6,4.43,4.43,0,0,1,4.03,4.65,3.134,3.134,0,0,1-1.106,2.083c-.244.2-.319.275-.3.425.031.217.144.208.35.158A3.467,3.467,0,0,0,40,44.918a5.585,5.585,0,0,0-5.563-5.925ZM7.615,51.053c-1.149,1.675-2.762,2.308-3.455,1.775-.744-.577-.45-3.041.968-4.826A20.039,20.039,0,0,1,7.84,45.3c.169-.133.413-.333.713-.575.05-.042.075-.058.075-.058.056-.05.119-.092.181-.142a8.288,8.288,0,0,1-1.194,6.524Zm8.4-7.616c-.4,1.308-1.243,4.641-1.756,4.466-.438-.15-.706-2.691-.088-5.191a12.993,12.993,0,0,1,1.369-3.341c.631-.942,1.324-1.242,1.487-.867.219.492-.763,4.116-1.013,4.933Zm6.938,4.416c-.169.117-.325.192-.4.133-.056-.042.069-.2.069-.2s.869-1.242,1.213-1.808c.2-.333.431-.725.681-1.158,0,.042.006.083.006.133a3.93,3.93,0,0,1-1.57,2.9ZM28.3,46.228c-.125-.117-.106-.508.313-1.725A6.639,6.639,0,0,1,29.8,42.462a3.931,3.931,0,0,1,.119.9A2.881,2.881,0,0,1,28.3,46.228Z" transform="translate(-0.004 -16.004)"/></svg>